<?xml version="1.0" encoding="UTF-8" standalone="no"?>
<!DOCTYPE svg PUBLIC "-//W3C//DTD SVG 1.1//EN" "http://www.w3.org/Graphics/SVG/1.1/DTD/svg11.dtd">
<svg width="100%" height="100%" viewBox="0 0 24 24" version="1.1" xmlns="http://www.w3.org/2000/svg" xmlns:xlink="http://www.w3.org/1999/xlink" xml:space="preserve" xmlns:serif="http://www.serif.com/" style="fill-rule:evenodd;clip-rule:evenodd;stroke-linejoin:round;stroke-miterlimit:2;">
    <g transform="matrix(0.048,0,0,0.048,0,0)">
        <path d="M45.259,447L45.259,62.872C45.259,49.074 56.461,37.872 70.259,37.872C84.057,37.872 95.259,49.074 95.259,62.872L95.259,314.035L156.214,154.803C160.038,144.812 169.594,138.686 179.698,138.737C183.312,138.719 186.987,139.488 190.472,141.134L260.148,174.042L337.282,86.285C344.492,78.082 355.899,75.734 365.48,79.627C368.402,80.453 371.221,81.829 373.785,83.775L464.139,152.393C472.077,156.584 477.493,164.923 477.493,174.517L477.493,447C477.493,460.798 466.291,472 452.493,472L70.259,472C56.461,472 45.259,460.798 45.259,447ZM360.152,293.229L282.435,407.443C281.014,409.531 279.333,411.335 277.464,412.842C267.67,421.182 252.932,420.752 243.647,411.521L192.886,361.055L131.585,422L427.493,422L427.493,392.194L360.152,293.229ZM360.044,136.124L285.853,220.533C280.676,226.424 273.333,229.295 266.058,229.004C262.161,229.161 258.172,228.406 254.406,226.627L193.305,197.768L136.222,346.884L173.936,309.39C174.31,308.958 174.7,308.537 175.108,308.127C180.003,303.204 186.446,300.746 192.886,300.758C199.325,300.746 205.769,303.204 210.664,308.127C211.071,308.537 211.462,308.958 211.836,309.39L257.671,354.958L338.869,235.629C343.822,228.35 351.951,224.51 360.152,224.702C368.352,224.51 376.482,228.35 381.435,235.629L427.493,303.316L427.493,187.347L360.044,136.124Z" style="fill:white;"/>
    </g>
</svg>
