<?xml version="1.0" encoding="UTF-8" standalone="no"?>
<!DOCTYPE svg PUBLIC "-//W3C//DTD SVG 1.1//EN" "http://www.w3.org/Graphics/SVG/1.1/DTD/svg11.dtd">
<svg width="100%" height="100%" viewBox="0 0 24 24" version="1.1" xmlns="http://www.w3.org/2000/svg" xmlns:xlink="http://www.w3.org/1999/xlink" xml:space="preserve" xmlns:serif="http://www.serif.com/" style="fill-rule:evenodd;clip-rule:evenodd;stroke-linejoin:round;stroke-miterlimit:2;">
    <g transform="matrix(0.0535217,0,0,0.0598802,-2.69052,-22.9581)">
        <path d="M478.956,421C478.956,409.962 468.93,401 456.58,401L92.376,401C80.026,401 70,409.962 70,421C70,432.038 80.026,441 92.376,441L456.58,441C468.93,441 478.956,432.038 478.956,421Z" style="fill:white;"/>
    </g>
    <g transform="matrix(2.68256e-18,0.0438095,-0.0598802,3.66661e-18,46.956,-2.01277)">
        <path d="M478.956,421C478.956,409.962 466.707,401 451.619,401L97.337,401C82.249,401 70,409.962 70,421C70,432.038 82.249,441 97.337,441L451.619,441C466.707,441 478.956,432.038 478.956,421Z" style="fill:white;"/>
    </g>
    <g transform="matrix(2.68256e-18,0.0438095,-0.0598802,3.66661e-18,27.4632,-2.01277)">
        <path d="M478.956,421C478.956,409.962 466.707,401 451.619,401L97.337,401C82.249,401 70,409.962 70,421C70,432.038 82.249,441 97.337,441L451.619,441C466.707,441 478.956,432.038 478.956,421Z" style="fill:white;"/>
    </g>
    <g transform="matrix(1.01134e-18,0.0165164,-0.0598802,3.66661e-18,32.9961,15.4187)">
        <path d="M478.956,421C478.956,409.962 446.465,401 406.446,401L142.51,401C102.491,401 70,409.962 70,421C70,432.038 102.491,441 142.51,441L406.446,441C446.465,441 478.956,432.038 478.956,421Z" style="fill:white;"/>
    </g>
    <g transform="matrix(-0.0148016,0.0148016,-0.0423417,-0.0423417,31.8546,33.7154)">
        <path d="M478.956,421C478.956,409.962 453.32,401 421.743,401L127.213,401C95.636,401 70,409.962 70,421C70,432.038 95.636,441 127.213,441L421.743,441C453.32,441 478.956,432.038 478.956,421Z" style="fill:white;"/>
    </g>
    <g transform="matrix(0.0479042,0,0,0.0479042,0,0)">
        <path d="M162.543,346L162.543,396L47.044,396C33.246,396 22.044,384.798 22.044,371C22.044,357.202 33.246,346 47.044,346L162.543,346ZM253,346L453.956,346C467.754,346 478.956,357.202 478.956,371C478.956,384.798 467.754,396 453.956,396L256,396L253,346Z" style="fill:white;"/>
    </g>
    <g transform="matrix(0.0352848,-0.0352848,0.0278571,0.0278571,-1.66081,14.3834)">
        <path d="M266,213.399C266,196.621 255.246,183 242,183C228.754,183 218,196.621 218,213.399L218,302.601C218,319.379 228.754,333 242,333C255.246,333 266,319.379 266,302.601L266,213.399Z" style="fill:white;"/>
    </g>
    <g transform="matrix(0.0338734,-0.0338734,0.0338734,0.0338734,-4.94343,10.6209)">
        <path d="M245,106C298.536,106 342,149.464 342,203C342,256.536 298.536,300 245,300C191.464,300 148,256.536 148,203C148,149.464 191.464,106 245,106ZM245,156C270.94,156 292,177.06 292,203C292,228.94 270.94,250 245,250C219.06,250 198,228.94 198,203C198,177.06 219.06,156 245,156Z" style="fill:white;"/>
    </g>
</svg>
