<?xml version="1.0" encoding="UTF-8" standalone="no"?>
<!DOCTYPE svg PUBLIC "-//W3C//DTD SVG 1.1//EN" "http://www.w3.org/Graphics/SVG/1.1/DTD/svg11.dtd">
<svg width="100%" height="100%" viewBox="0 0 6 6" version="1.1" xmlns="http://www.w3.org/2000/svg" xmlns:xlink="http://www.w3.org/1999/xlink" xml:space="preserve" xmlns:serif="http://www.serif.com/" style="fill-rule:evenodd;clip-rule:evenodd;stroke-linejoin:round;stroke-miterlimit:2;">
    <g transform="matrix(0.24,0,0,0.24,0,0)">
        <g transform="matrix(0.048,0,0,0.048,0,0)">
            <path d="M370.259,15.872C372.313,15.878 374.36,16.121 376.354,16.622C380.876,17.756 385.004,20.177 388.248,23.519L388.357,23.632C392.632,28.119 395.259,34.191 395.259,40.872L395.259,447C395.252,449.002 395.022,450.999 394.546,452.945C393.523,457.132 391.399,460.993 388.455,464.136L388.314,464.285C383.762,469.038 377.354,472 370.259,472L105.259,472C98.164,472 91.755,469.038 87.203,464.285L87.161,464.24C82.885,459.753 80.259,453.681 80.259,447L80.259,40.872C80.259,34.191 82.885,28.119 87.161,23.632L87.203,23.587C91.755,18.834 98.164,15.872 105.259,15.872L370.259,15.872ZM202.583,289L182.878,289L182.878,430.872L202.583,430.872L202.583,289ZM238.051,289L218.346,289L218.346,430.872L238.051,430.872L238.051,289ZM349.388,289L318.649,289L318.649,430.872L349.388,430.872L349.388,289ZM167.115,289L126.129,289L126.129,430.872L167.115,430.872L167.115,289ZM302.885,289L253.814,289L253.814,430.872L302.885,430.872L302.885,289ZM349.388,250L349.388,220L126.129,220L126.129,250L349.388,250ZM349.388,197.028L349.388,167.028L126.129,167.028L126.129,197.028L349.388,197.028ZM349.388,144.056L349.388,114.056L126.129,114.056L126.129,144.056L349.388,144.056ZM268.002,91.084L268.002,61.084L126.129,61.084L126.129,91.084L268.002,91.084Z" style="fill:white;"/>
        </g>
    </g>
</svg>
