<?xml version="1.0" encoding="UTF-8" standalone="no"?>
<!DOCTYPE svg PUBLIC "-//W3C//DTD SVG 1.1//EN" "http://www.w3.org/Graphics/SVG/1.1/DTD/svg11.dtd">
<svg width="100%" height="100%" viewBox="0 0 24 24" version="1.1" xmlns="http://www.w3.org/2000/svg" xmlns:xlink="http://www.w3.org/1999/xlink" xml:space="preserve" xmlns:serif="http://www.serif.com/" style="fill-rule:evenodd;clip-rule:evenodd;stroke-linejoin:round;stroke-miterlimit:2;">
    <g transform="matrix(0.0923077,-1.25401e-17,-3.65492e-18,-0.0631579,-5.02657,25.3266)">
        <path d="M241,211C241,200.514 235.175,192 228,192L98,192C90.825,192 85,200.514 85,211C85,221.486 90.825,230 98,230L228,230C235.175,230 241,221.486 241,211Z" style="fill:white;"/>
    </g>
    <g transform="matrix(-0.0366662,0.0366662,0.0446594,0.0446594,10.5618,-1.38835)">
        <path d="M241,211C241,200.514 230.63,192 217.858,192L108.142,192C95.37,192 85,200.514 85,211C85,221.486 95.37,230 108.142,230L217.858,230C230.63,230 241,221.486 241,211Z" style="fill:white;"/>
    </g>
    <g transform="matrix(-0.0366662,-0.0366662,-0.0446594,0.0446594,29.4075,6.54256)">
        <path d="M241,211C241,200.514 230.63,192 217.858,192L108.142,192C95.37,192 85,200.514 85,211C85,221.486 95.37,230 108.142,230L217.858,230C230.63,230 241,221.486 241,211Z" style="fill:white;"/>
    </g>
    <g transform="matrix(-4.13449e-18,-0.136615,-0.0631579,-2.7547e-18,33.9307,34.2683)">
        <path d="M241,211C241,200.514 237.064,192 232.216,192L93.784,192C88.936,192 85,200.514 85,211C85,221.486 88.936,230 93.784,230L232.216,230C237.064,230 241,221.486 241,211Z" style="fill:white;"/>
    </g>
    <g transform="matrix(0.0550769,2.07612e-17,2.44169e-17,-0.0631579,8.53088,15.8703)">
        <path d="M241,211C241,200.514 231.237,192 219.212,192L106.788,192C94.763,192 85,200.514 85,211C85,221.486 94.763,230 106.788,230L219.212,230C231.237,230 241,221.486 241,211Z" style="fill:white;"/>
    </g>
    <g transform="matrix(0.0550769,2.07612e-17,2.44169e-17,-0.0631579,8.53088,34.7823)">
        <path d="M241,211C241,200.514 231.237,192 219.212,192L106.788,192C94.763,192 85,200.514 85,211C85,221.486 94.763,230 106.788,230L219.212,230C231.237,230 241,221.486 241,211Z" style="fill:white;"/>
    </g>
</svg>
