<?xml version="1.0" encoding="UTF-8" standalone="no"?>
<!DOCTYPE svg PUBLIC "-//W3C//DTD SVG 1.1//EN" "http://www.w3.org/Graphics/SVG/1.1/DTD/svg11.dtd">
<svg width="100%" height="100%" viewBox="0 0 6 6" version="1.1" xmlns="http://www.w3.org/2000/svg" xmlns:xlink="http://www.w3.org/1999/xlink" xml:space="preserve" xmlns:serif="http://www.serif.com/" style="fill-rule:evenodd;clip-rule:evenodd;stroke-linejoin:round;stroke-miterlimit:2;">
    <g transform="matrix(0.24,0,0,0.24,0,0)">
        <g transform="matrix(0.048,0,0,0.048,-0.384,0.192)">
            <path d="M476,82.6C476,64.056 460.944,49 442.4,49L73.6,49C55.056,49 40,64.056 40,82.6L40,351.4C40,369.944 55.056,385 73.6,385L442.4,385C460.944,385 476,369.944 476,351.4L476,82.6ZM258,346C266.003,346 272.5,352.497 272.5,360.5C272.5,368.503 266.003,375 258,375C249.997,375 243.5,368.503 243.5,360.5C243.5,352.497 249.997,346 258,346ZM426,99L90,99L90,335L426,335L426,99Z" style="fill:white;"/>
        </g>
        <g transform="matrix(0.046486,0,0,0.0424186,0.0763363,2.45247)">
            <path d="M380,426.5C380,414.634 371.209,405 360.381,405L152.619,405C141.791,405 133,414.634 133,426.5C133,438.366 141.791,448 152.619,448L360.381,448C371.209,448 380,438.366 380,426.5Z" style="fill:white;"/>
        </g>
    </g>
</svg>
