<?xml version="1.0" encoding="UTF-8" standalone="no"?>
<!DOCTYPE svg PUBLIC "-//W3C//DTD SVG 1.1//EN" "http://www.w3.org/Graphics/SVG/1.1/DTD/svg11.dtd">
<svg width="100%" height="100%" viewBox="0 0 24 24" version="1.1" xmlns="http://www.w3.org/2000/svg" xmlns:xlink="http://www.w3.org/1999/xlink" xml:space="preserve" xmlns:serif="http://www.serif.com/" style="fill-rule:evenodd;clip-rule:evenodd;stroke-linejoin:round;stroke-miterlimit:2;">
    <g transform="matrix(0.048,0,0,0.048,0,0)">
        <path d="M61.518,458.71L51.518,458.71C44.895,458.71 39.518,453.333 39.518,446.71L39.518,422.71C39.518,416.087 44.895,410.71 51.518,410.71L448.482,410.71C455.105,410.71 460.482,416.087 460.482,422.71L460.482,446.71C460.482,453.333 455.105,458.71 448.482,458.71L438.482,458.71L438.482,483.71L363.482,483.71L363.482,458.71L287.5,458.71L287.5,483.71L212.5,483.71L212.5,458.71L136.518,458.71L136.518,483.71L61.518,483.71L61.518,458.71ZM240.568,228.132C240.568,222.226 235.774,217.432 229.868,217.432L78.427,217.432C72.522,217.432 67.728,222.226 67.728,228.132L67.728,380.011C67.728,385.916 72.522,390.71 78.427,390.71L229.868,390.71C235.774,390.71 240.568,385.916 240.568,380.011L240.568,228.132ZM432.272,228.132C432.272,222.226 427.478,217.432 421.573,217.432L270.132,217.432C264.226,217.432 259.432,222.226 259.432,228.132L259.432,380.011C259.432,385.916 264.226,390.71 270.132,390.71L421.573,390.71C427.478,390.71 432.272,385.916 432.272,380.011L432.272,228.132ZM175.148,267.432L175.148,286.432L133.148,286.432L133.148,267.432L117.728,267.432L117.728,340.71L190.568,340.71L190.568,267.432L175.148,267.432ZM366.852,267.432L366.852,286.432L324.852,286.432L324.852,267.432L309.432,267.432L309.432,340.71L382.272,340.71L382.272,267.432L366.852,267.432ZM240.568,35.989C240.568,30.084 235.774,25.29 229.868,25.29L78.427,25.29C72.522,25.29 67.728,30.084 67.728,35.989L67.728,187.868C67.728,193.774 72.522,198.568 78.427,198.568L229.868,198.568C235.774,198.568 240.568,193.774 240.568,187.868L240.568,35.989ZM432.272,35.989C432.272,30.084 427.478,25.29 421.573,25.29L270.132,25.29C264.226,25.29 259.432,30.084 259.432,35.989L259.432,187.868C259.432,193.774 264.226,198.568 270.132,198.568L421.573,198.568C427.478,198.568 432.272,193.774 432.272,187.868L432.272,35.989ZM175.148,75.29L175.148,94.29L133.148,94.29L133.148,75.29L117.728,75.29L117.728,148.568L190.568,148.568L190.568,75.29L175.148,75.29ZM366.852,75.29L366.852,94.29L324.852,94.29L324.852,75.29L309.432,75.29L309.432,148.568L382.272,148.568L382.272,75.29L366.852,75.29Z" style="fill:white;"/>
    </g>
</svg>
