<?xml version="1.0" encoding="UTF-8" standalone="no"?>
<!DOCTYPE svg PUBLIC "-//W3C//DTD SVG 1.1//EN" "http://www.w3.org/Graphics/SVG/1.1/DTD/svg11.dtd">
<svg width="100%" height="100%" viewBox="0 0 24 24" version="1.1" xmlns="http://www.w3.org/2000/svg" xmlns:xlink="http://www.w3.org/1999/xlink" xml:space="preserve" xmlns:serif="http://www.serif.com/" style="fill-rule:evenodd;clip-rule:evenodd;stroke-linejoin:round;stroke-miterlimit:2;">
    <g transform="matrix(1.05194,0,0,0.843935,-1.52355,-0.632472)">
        <path d="M22.944,4.581C22.944,3.798 22.434,3.162 21.806,3.162L3.791,3.162C3.163,3.162 2.652,3.798 2.652,4.581C2.652,5.364 3.163,6 3.791,6L21.806,6C22.434,6 22.944,5.364 22.944,4.581Z" style="fill:white;"/>
    </g>
    <g transform="matrix(0.0406582,0,0,0.0406582,0.88822,-1.13722)">
        <circle cx="139.5" cy="107.5" r="59.5" style="fill:white;"/>
    </g>
    <g transform="matrix(0.0479042,0,0,0.0479042,0,0)">
        <path d="M410.363,250.781L431.971,229.174C436.849,224.295 444.77,224.295 449.648,229.174L467.326,246.851C472.204,251.729 472.204,259.651 467.326,264.529L445.719,286.136C469.787,323.855 469.788,372.551 445.719,410.278L467.326,431.886C472.204,436.764 472.204,444.685 467.326,449.564L449.648,467.241C444.77,472.12 436.849,472.12 431.971,467.241L410.363,445.634C372.645,469.702 323.949,469.703 286.221,445.634L264.614,467.241C259.735,472.12 251.814,472.12 246.936,467.241L229.258,449.564C224.38,444.685 224.38,436.764 229.258,431.886L250.866,410.278C226.798,372.56 226.796,323.864 250.866,286.136L229.258,264.529C224.38,259.651 224.38,251.729 229.258,246.851L246.936,229.174C251.814,224.295 259.735,224.295 264.614,229.174L286.221,250.781C323.94,226.713 372.636,226.712 410.363,250.781ZM394.608,394.523C420.17,368.961 420.17,327.454 394.608,301.892C369.045,276.33 327.539,276.33 301.977,301.892C276.415,327.454 276.415,368.961 301.977,394.523C327.539,420.085 369.045,420.085 394.608,394.523Z" style="fill:white;"/>
    </g>
    <g transform="matrix(0.0479042,0,0,0.0479042,0,0)">
        <path d="M201.899,203.5L167.133,238.266C162.882,242.517 160.51,247.941 160.017,253.5L51.441,253.5C37.643,253.5 26.441,242.298 26.441,228.5C26.441,214.702 37.643,203.5 51.441,203.5L201.899,203.5Z" style="fill:white;"/>
    </g>
    <g transform="matrix(0.0479042,0,0,0.0479042,0,0)">
        <path d="M183.608,364.5C184.883,377.519 187.67,390.099 191.79,402.059L179.349,414.5L51.441,414.5C37.643,414.5 26.441,403.298 26.441,389.5C26.441,375.702 37.643,364.5 51.441,364.5L183.608,364.5Z" style="fill:white;"/>
    </g>
    <g transform="matrix(0.0479042,0,0,0.0479042,0,0)">
        <path d="M162.564,433.017C155.052,437.453 146.292,440 136.941,440C109.069,440 86.441,417.372 86.441,389.5C86.441,361.628 109.069,339 136.941,339C159.007,339 177.786,353.183 184.652,372.922C185.362,377.655 186.273,382.323 187.376,386.917C187.419,387.771 187.441,388.633 187.441,389.5C187.441,397.343 185.649,404.771 182.452,411.397L167.133,426.716C165.236,428.613 163.713,430.744 162.564,433.017Z" style="fill:white;"/>
    </g>
</svg>
