<?xml version="1.0" encoding="UTF-8" standalone="no"?>
<!DOCTYPE svg PUBLIC "-//W3C//DTD SVG 1.1//EN" "http://www.w3.org/Graphics/SVG/1.1/DTD/svg11.dtd">
<svg width="100%" height="100%" viewBox="0 0 24 24" version="1.1" xmlns="http://www.w3.org/2000/svg" xmlns:xlink="http://www.w3.org/1999/xlink" xml:space="preserve" xmlns:serif="http://www.serif.com/" style="fill-rule:evenodd;clip-rule:evenodd;stroke-linejoin:round;stroke-miterlimit:2;">
    <g transform="matrix(1.05194,0,0,0.843935,-1.52355,-0.632472)">
        <path d="M22.944,4.581C22.944,3.798 22.434,3.162 21.806,3.162L3.791,3.162C3.163,3.162 2.652,3.798 2.652,4.581C2.652,5.364 3.163,6 3.791,6L21.806,6C22.434,6 22.944,5.364 22.944,4.581Z" style="fill:white;"/>
    </g>
    <g transform="matrix(0.0406582,0,0,0.0406582,0.88822,-1.13722)">
        <circle cx="139.5" cy="107.5" r="59.5" style="fill:white;"/>
    </g>
    <g transform="matrix(0.031711,0,0,0.0901168,3.57869,-20.2621)">
        <path d="M357,385.053C357,381.712 349.292,379 339.798,379L238.202,379C228.708,379 221,381.712 221,385.053L221,473.947C221,477.288 228.708,480 238.202,480L339.798,480C349.292,480 357,477.288 357,473.947L357,385.053Z" style="fill:white;"/>
    </g>
    <g transform="matrix(1.94174e-18,0.031711,-0.0749392,4.5887e-18,51.5889,11.6829)">
        <path d="M357,386.279C357,382.262 349.292,379 339.798,379L238.202,379C228.708,379 221,382.262 221,386.279L221,472.721C221,476.738 228.708,480 238.202,480L339.798,480C349.292,480 357,476.738 357,472.721L357,386.279Z" style="fill:white;"/>
    </g>
    <g transform="matrix(3.08486e-18,0.0503796,-0.0578645,3.54318e-18,43.393,-0.0130268)">
        <path d="M357,390.385C357,384.101 351.141,379 343.924,379L234.076,379C226.859,379 221,384.101 221,390.385L221,468.615C221,474.899 226.859,480 234.076,480L343.924,480C351.141,480 357,474.899 357,468.615L357,390.385Z" style="fill:white;"/>
    </g>
    <g transform="matrix(0.0479042,0,0,0.0479042,0,0)">
        <path d="M276.296,203.5C276.119,204.699 276.028,205.925 276.028,207.172L276.028,253.5L51.441,253.5C37.643,253.5 26.441,242.298 26.441,228.5C26.441,214.702 37.643,203.5 51.441,203.5L276.296,203.5Z" style="fill:white;"/>
    </g>
    <g transform="matrix(0.0479042,0,0,0.0479042,0,0)">
        <path d="M171,365.175L171,415.175L51.441,415.175C37.643,415.175 26.441,403.973 26.441,390.175C26.441,376.378 37.643,365.175 51.441,365.175L171,365.175Z" style="fill:white;"/>
    </g>
    <g transform="matrix(0.0479042,0,0,0.0479042,0,0)">
        <path d="M171,426.772C162.017,434.987 150.06,440 136.941,440C109.069,440 86.441,417.372 86.441,389.5C86.441,361.628 109.069,339 136.941,339C150.06,339 162.017,344.013 171,352.228L171,426.772Z" style="fill:white;"/>
    </g>
</svg>
