<?xml version="1.0" encoding="UTF-8" standalone="no"?>
<!DOCTYPE svg PUBLIC "-//W3C//DTD SVG 1.1//EN" "http://www.w3.org/Graphics/SVG/1.1/DTD/svg11.dtd">
<svg width="100%" height="100%" viewBox="0 0 24 24" version="1.1" xmlns="http://www.w3.org/2000/svg" xmlns:xlink="http://www.w3.org/1999/xlink" xml:space="preserve" xmlns:serif="http://www.serif.com/" style="fill-rule:evenodd;clip-rule:evenodd;stroke-linejoin:round;stroke-miterlimit:2;">
    <g transform="matrix(0.0479042,0,0,0.0479042,5.84635,5.49701)">
        <path d="M221.5,148.994L221.5,131C221.5,123.135 227.885,116.75 235.75,116.75L264.25,116.75C272.115,116.75 278.5,123.135 278.5,131L278.5,148.994C290.937,153.035 302.219,159.65 311.717,168.209L327.332,159.193C334.143,155.261 342.866,157.598 346.798,164.409L361.048,189.091C364.98,195.902 362.643,204.624 355.832,208.557L340.247,217.555C341.559,223.744 342.25,230.167 342.25,236.75C342.25,243.333 341.559,249.756 340.247,255.945L355.832,264.943C362.643,268.876 364.98,277.598 361.048,284.409L346.798,309.091C342.866,315.902 334.143,318.239 327.332,314.307L311.717,305.291C302.218,313.85 290.936,320.465 278.5,324.506L278.5,342.5C278.5,350.365 272.115,356.75 264.25,356.75L235.75,356.75C227.885,356.75 221.5,350.365 221.5,342.5L221.5,324.506C209.063,320.465 197.781,313.85 188.283,305.291L172.668,314.307C165.857,318.239 157.134,315.902 153.202,309.091L138.952,284.409C135.02,277.598 137.357,268.876 144.168,264.943L159.753,255.945C158.441,249.756 157.75,243.333 157.75,236.75C157.75,230.167 158.441,223.744 159.753,217.555L144.168,208.557C137.357,204.624 135.02,195.902 138.952,189.091L153.202,164.409C157.134,157.598 165.857,155.261 172.668,159.193L188.283,168.209C197.782,159.65 209.064,153.035 221.5,148.994ZM250,194.5C273.318,194.5 292.25,213.432 292.25,236.75C292.25,260.068 273.318,279 250,279C226.682,279 207.75,260.068 207.75,236.75C207.75,213.432 226.682,194.5 250,194.5Z" style="fill:white;"/>
    </g>
    <g transform="matrix(0.0479042,0,0,0.0479042,0,0)">
        <path d="M285.445,471.5L78.5,471.5L78.5,409.5L60.021,409.5C35.173,409.5 15,389.327 15,364.479L15,152.521C15,127.673 35.173,107.5 60.021,107.5L78.5,107.5L78.5,28.5L421.5,28.5L421.5,107.5L439.979,107.5C464.827,107.5 485,127.673 485,152.521L485,255.912C471.35,239.8 454.316,226.642 435,217.541L435,168.148C435,162.271 430.229,157.5 424.352,157.5L75.648,157.5C69.771,157.5 65,162.271 65,168.148L65,348.852C65,354.729 69.771,359.5 75.648,359.5L78.5,359.5L78.5,320.5L227.301,320.5C225.167,330.49 224.043,340.865 224.043,351.5C224.043,356.564 224.298,361.57 224.795,366.5L119.5,366.5L119.5,390.5L229.245,390.5C231.612,399.177 234.75,407.537 238.579,415.5L119.5,415.5L119.5,439.5L253.069,439.5C262.153,451.754 273.082,462.559 285.445,471.5Z" style="fill:white;"/>
    </g>
</svg>
