<?xml version="1.0" encoding="UTF-8" standalone="no"?>
<!DOCTYPE svg PUBLIC "-//W3C//DTD SVG 1.1//EN" "http://www.w3.org/Graphics/SVG/1.1/DTD/svg11.dtd">
<svg width="100%" height="100%" viewBox="0 0 24 24" version="1.1" xmlns="http://www.w3.org/2000/svg" xmlns:xlink="http://www.w3.org/1999/xlink" xml:space="preserve" xmlns:serif="http://www.serif.com/" style="fill-rule:evenodd;clip-rule:evenodd;stroke-linejoin:round;stroke-miterlimit:2;">
    <g transform="matrix(1.05194,0,0,0.843935,-1.52355,0.421421)">
        <path d="M22.944,4.581C22.944,3.798 22.434,3.162 21.806,3.162L3.791,3.162C3.163,3.162 2.652,3.798 2.652,4.581C2.652,5.364 3.163,6 3.791,6L21.806,6C22.434,6 22.944,5.364 22.944,4.581Z" style="fill:white;"/>
    </g>
    <g transform="matrix(0.0406582,0,0,0.0406582,0.88822,-0.0833291)">
        <circle cx="139.5" cy="107.5" r="59.5" style="fill:white;"/>
    </g>
    <g transform="matrix(-1.05194,0,0,-0.843935,25.4023,15.866)">
        <path d="M22.944,4.581C22.944,3.798 22.434,3.162 21.806,3.162L3.791,3.162C3.163,3.162 2.652,3.798 2.652,4.581C2.652,5.364 3.163,6 3.791,6L21.806,6C22.434,6 22.944,5.364 22.944,4.581Z" style="fill:white;"/>
    </g>
    <g transform="matrix(-0.0406582,0,0,-0.0406582,22.9905,16.3708)">
        <circle cx="139.5" cy="107.5" r="59.5" style="fill:white;"/>
    </g>
    <g transform="matrix(1.05194,0,0,-0.843935,-1.52355,23.5786)">
        <path d="M22.944,4.581C22.944,3.798 22.434,3.162 21.806,3.162L3.791,3.162C3.163,3.162 2.652,3.798 2.652,4.581C2.652,5.364 3.163,6 3.791,6L21.806,6C22.434,6 22.944,5.364 22.944,4.581Z" style="fill:white;"/>
    </g>
    <g transform="matrix(0.0406582,0,0,-0.0406582,0.88822,24.0833)">
        <circle cx="139.5" cy="107.5" r="59.5" style="fill:white;"/>
    </g>
</svg>
