<?xml version="1.0" encoding="UTF-8" standalone="no"?>
<!DOCTYPE svg PUBLIC "-//W3C//DTD SVG 1.1//EN" "http://www.w3.org/Graphics/SVG/1.1/DTD/svg11.dtd">
<svg width="100%" height="100%" viewBox="0 0 24 24" version="1.1" xmlns="http://www.w3.org/2000/svg" xmlns:xlink="http://www.w3.org/1999/xlink" xml:space="preserve" xmlns:serif="http://www.serif.com/" style="fill-rule:evenodd;clip-rule:evenodd;stroke-linejoin:round;stroke-miterlimit:2;">
    <g transform="matrix(0.048,0,0,0.048,1.36424e-15,-0.336)">
        <path d="M250,164.5C301.052,164.5 342.5,205.948 342.5,257C342.5,308.052 301.052,349.5 250,349.5C198.948,349.5 157.5,308.052 157.5,257C157.5,205.948 198.948,164.5 250,164.5ZM250,214.5C273.456,214.5 292.5,233.544 292.5,257C292.5,280.456 273.456,299.5 250,299.5C226.544,299.5 207.5,280.456 207.5,257C207.5,233.544 226.544,214.5 250,214.5Z" style="fill:white;"/>
    </g>
    <g transform="matrix(0.048,0,0,0.048,0.384,-0.24)">
        <path d="M192,71.475L192,45C192,31.202 203.202,20 217,20L267,20C280.798,20 292,31.202 292,45L292,71.476C306.905,75.536 321.32,81.399 334.888,88.968L335.885,89.529L337.125,90.239C337.516,90.464 337.906,90.691 338.299,90.922C338.733,91.177 339.166,91.433 339.598,91.691C352.838,99.625 365.037,109.127 375.936,119.937L398.865,106.699C410.815,99.8 426.117,103.9 433.016,115.849L458.016,159.151C464.915,171.1 460.815,186.402 448.865,193.301L425.936,206.54C426.644,209.226 427.293,211.928 427.884,214.643L428.163,215.952C429.37,221.691 430.313,227.489 430.988,233.33L431.084,234.174C431.157,234.831 431.227,235.489 431.293,236.142L431.398,237.213L431.503,238.353L431.617,239.694C431.972,244.034 432.179,248.391 432.236,252.757L432.245,253.624C432.248,254.076 432.25,254.538 432.25,255C432.25,255.839 432.245,256.677 432.233,257.513C432.009,273.069 429.878,288.505 425.936,303.461L448.865,316.699C460.815,323.598 464.915,338.9 458.016,350.849L433.016,394.151C426.117,406.1 410.815,410.2 398.865,403.301L375.936,390.063C375.549,390.447 375.16,390.829 374.77,391.209C370.137,395.726 365.269,400.014 360.19,404.048C357.626,406.085 355.008,408.057 352.338,409.962C351.771,410.366 351.201,410.768 350.629,411.167C350.053,411.569 349.472,411.969 348.888,412.367C348.302,412.766 347.709,413.165 347.114,413.56C344.669,415.186 342.178,416.76 339.649,418.277L338.314,419.069C337.924,419.298 337.525,419.53 337.125,419.761C336.645,420.039 336.163,420.314 335.682,420.586C335.314,420.794 334.946,421 334.577,421.205C331.999,422.637 329.391,424.007 326.76,425.312C326.12,425.629 325.479,425.943 324.839,426.251C324.203,426.558 323.566,426.861 322.93,427.159C322.298,427.455 321.665,427.748 321.032,428.037C318.047,429.396 315.03,430.677 311.984,431.88C305.951,434.261 299.804,436.333 293.576,438.087C293.051,438.234 292.526,438.38 292,438.523L292,465C292,478.798 280.798,490 267,490L217,490C203.202,490 192,478.798 192,465L192,438.523C191.474,438.38 190.949,438.234 190.424,438.087C184.196,436.333 178.049,434.261 172.016,431.88C168.97,430.677 165.953,429.396 162.968,428.037C162.335,427.748 161.702,427.455 161.07,427.159C160.434,426.861 159.797,426.558 159.161,426.251C158.521,425.943 157.88,425.629 157.24,425.312C154.609,424.007 152.001,422.637 149.423,421.205C149.054,421 148.686,420.794 148.318,420.586C147.837,420.314 147.355,420.039 146.875,419.761C146.475,419.53 146.076,419.298 145.686,419.069L144.939,418.628C141.187,416.396 137.517,414.038 133.936,411.56L132.832,410.791L131.897,410.13L131.022,409.504C130.49,409.12 129.955,408.731 129.422,408.339L128.739,407.833C124.018,404.329 119.469,400.613 115.102,396.698L114.108,395.802C112.052,393.933 110.036,392.019 108.064,390.063L85.135,403.301C73.185,410.2 57.883,406.1 50.984,394.151L25.984,350.849C19.085,338.9 23.185,323.598 35.135,316.699L58.064,303.461C54.151,288.616 52.023,273.301 51.772,257.868C51.764,257.365 51.758,256.862 51.755,256.359C51.752,255.903 51.75,255.452 51.75,255L51.759,253.255C51.805,248.722 52.014,244.199 52.383,239.694L52.497,238.353L52.602,237.213L52.707,236.142C52.773,235.489 52.843,234.831 52.916,234.174L53.012,233.33C53.687,227.489 54.63,221.691 55.837,215.952L56.116,214.643C56.707,211.928 57.356,209.226 58.064,206.54L35.135,193.301C23.185,186.402 19.085,171.1 25.984,159.151L50.984,115.849C57.883,103.9 73.185,99.8 85.135,106.699L108.064,119.937C119.026,109.066 131.307,99.515 144.643,91.548L145.701,90.922C146.094,90.691 146.484,90.464 146.875,90.239L148.115,89.529L149.112,88.968C162.678,81.399 177.093,75.536 192,71.475ZM243.875,114.763C243.249,114.754 242.625,114.75 242,114.75C241.254,114.75 240.509,114.756 239.759,114.768C216.577,115.167 193.769,121.308 173.524,132.603L172.789,133.017L171.875,133.54C171.587,133.706 171.299,133.874 171.009,134.044L170.23,134.505C150.324,146.396 133.607,163.076 121.676,182.943C121.291,183.587 120.913,184.229 120.54,184.875L120.158,185.541C118.068,189.218 116.149,192.981 114.404,196.817L114.04,197.624C110.07,206.503 107.031,215.767 104.969,225.25L104.763,226.214C103.873,230.445 103.178,234.719 102.68,239.025L102.609,239.647C102.556,240.132 102.504,240.617 102.455,241.098L102.378,241.888L102.301,242.728L102.217,243.717C101.945,247.038 101.791,250.372 101.756,253.714L101.75,255C101.75,255.333 101.751,255.665 101.754,256.002C101.756,256.373 101.76,256.744 101.766,257.114C102.03,273.356 105.115,289.42 110.819,304.549L111.154,305.431C112.923,310.031 114.936,314.546 117.187,318.951L117.483,319.529L118.114,320.733C118.661,321.77 119.22,322.795 119.792,323.814C120.039,324.253 120.288,324.689 120.54,325.125C120.633,325.287 120.727,325.449 120.821,325.61C122.989,329.32 125.324,332.924 127.814,336.41L128.331,337.128C134.035,345.007 140.538,352.27 147.72,358.797L148.452,359.458C151.671,362.344 155.025,365.083 158.505,367.667L159.009,368.039C159.402,368.328 159.796,368.615 160.188,368.898L160.834,369.36L161.523,369.847L162.337,370.414C164.976,372.241 167.682,373.979 170.448,375.624L170.998,375.95C171.286,376.119 171.58,376.29 171.875,376.46C172.229,376.665 172.584,376.867 172.939,377.068C173.21,377.221 173.481,377.373 173.753,377.524C175.653,378.58 177.576,379.59 179.516,380.552C179.988,380.786 180.461,381.017 180.932,381.244C181.401,381.47 181.871,381.694 182.339,381.914C182.805,382.132 183.272,382.348 183.739,382.56C185.939,383.563 188.163,384.507 190.409,385.394C194.856,387.149 199.388,388.676 203.979,389.969C207.823,391.052 211.713,391.971 215.638,392.725C217.331,393.05 219.03,393.344 220.734,393.606C225.497,394.341 230.303,394.832 235.131,395.075C237.027,395.17 238.926,395.227 240.829,395.245C241.219,395.248 241.609,395.25 242,395.25C242.349,395.25 242.698,395.249 243.047,395.246C244.992,395.229 246.932,395.172 248.869,395.075C253.697,394.832 258.503,394.341 263.266,393.606C264.97,393.344 266.669,393.05 268.362,392.725C272.287,391.971 276.177,391.052 280.021,389.969C284.612,388.676 289.144,387.149 293.591,385.394C295.837,384.507 298.061,383.563 300.261,382.56C300.728,382.348 301.195,382.132 301.661,381.914C302.129,381.694 302.599,381.47 303.068,381.244C303.539,381.017 304.012,380.786 304.484,380.552C306.424,379.59 308.347,378.58 310.247,377.524C310.519,377.373 310.79,377.221 311.061,377.068C311.416,376.867 311.771,376.665 312.125,376.46C312.42,376.29 312.714,376.119 313.002,375.95L313.986,375.366C315.85,374.248 317.686,373.087 319.489,371.889C319.927,371.597 320.364,371.303 320.797,371.009C321.227,370.716 321.655,370.421 322.08,370.124C322.502,369.83 322.922,369.534 323.34,369.236C325.308,367.832 327.238,366.378 329.129,364.876C332.872,361.903 336.461,358.742 339.876,355.412C342.736,352.624 345.477,349.715 348.092,346.692C349.22,345.389 350.324,344.064 351.403,342.72C354.421,338.962 357.25,335.046 359.874,330.986C360.927,329.357 361.947,327.705 362.933,326.03C363.11,325.729 363.285,325.428 363.46,325.125C363.712,324.689 363.961,324.253 364.208,323.814C364.78,322.795 365.339,321.77 365.886,320.733L366.517,319.529L366.813,318.951C369.064,314.546 371.077,310.031 372.846,305.431L373.181,304.549C378.915,289.34 382.002,273.186 382.238,256.853C382.246,256.236 382.25,255.618 382.25,255C382.25,254.659 382.249,254.319 382.246,253.985L382.24,253.346C382.198,250.128 382.045,246.916 381.783,243.717L381.699,242.728L381.622,241.888L381.545,241.098C381.496,240.617 381.444,240.132 381.391,239.647L381.32,239.025C380.822,234.719 380.127,230.445 379.237,226.214L379.031,225.25C376.969,215.767 373.93,206.503 369.96,197.624L369.596,196.817C367.851,192.981 365.932,189.218 363.842,185.541L363.46,184.875C363.207,184.436 362.951,183.999 362.696,183.569C362.101,182.565 361.493,181.569 360.87,180.578L360.142,179.43L359.79,178.884C357.1,174.733 354.196,170.732 351.097,166.9L350.502,166.169C340.251,153.664 327.881,142.96 313.948,134.611C313.63,134.421 313.311,134.232 312.991,134.044C312.701,133.874 312.413,133.706 312.125,133.54L311.211,133.017L310.476,132.603C290.121,121.248 267.182,115.103 243.875,114.763Z" style="fill:white;"/>
    </g>
</svg>
