<?xml version="1.0" encoding="UTF-8" standalone="no"?>
<!DOCTYPE svg PUBLIC "-//W3C//DTD SVG 1.1//EN" "http://www.w3.org/Graphics/SVG/1.1/DTD/svg11.dtd">
<svg width="100%" height="100%" viewBox="0 0 24 24" version="1.1" xmlns="http://www.w3.org/2000/svg" xmlns:xlink="http://www.w3.org/1999/xlink" xml:space="preserve" xmlns:serif="http://www.serif.com/" style="fill-rule:evenodd;clip-rule:evenodd;stroke-linejoin:round;stroke-miterlimit:2;">
    <g transform="matrix(0.0463644,-0.0124233,0.0124233,0.0463644,-0.146329,2.12119)">
        <path d="M123,303C167.705,303 204,339.295 204,384C204,428.705 167.705,465 123,465C78.295,465 42,428.705 42,384C42,339.295 78.295,303 123,303ZM123,349C142.317,349 158,364.683 158,384C158,403.317 142.317,419 123,419C103.683,419 88,403.317 88,384C88,364.683 103.683,349 123,349Z" style="fill:white;"/>
    </g>
    <g transform="matrix(0.0463644,-0.0124233,0.0124233,0.0463644,-0.146329,2.12119)">
        <path d="M218.81,359L364,359C377.798,359 389,370.202 389,384C389,397.798 377.798,409 364,409L218.81,409C220.893,401.01 222,392.633 222,384C222,375.367 220.893,366.99 218.81,359ZM98,288.19L98,70L45,70C31.202,70 20,58.798 20,45C20,31.202 31.202,20 45,20L123,20C123,20 123.026,20 123.026,20C136.811,20.013 148,31.21 148,45L148,288.19C140.01,286.107 131.633,285 123,285C114.367,285 105.99,286.107 98,288.19Z" style="fill:white;"/>
    </g>
    <g transform="matrix(0.0463644,-0.0124233,0.0124233,0.0463644,-2.49195,1.80553)">
        <path d="M203.5,310.375L203.5,167.408C203.5,160.489 209.117,154.872 216.036,154.872L403.553,154.872C410.472,154.872 416.089,160.489 416.089,167.408L416.089,355.464C416.089,362.383 410.472,368 403.553,368L261.125,368C251.091,341.494 230.002,320.406 203.5,310.375ZM334.795,204.872L334.795,231.872L284.795,231.872L284.795,204.872L253.5,204.872L253.5,318L366.089,318L366.089,204.872L334.795,204.872Z" style="fill:white;"/>
    </g>
</svg>
