<?xml version="1.0" encoding="UTF-8" standalone="no"?>
<!DOCTYPE svg PUBLIC "-//W3C//DTD SVG 1.1//EN" "http://www.w3.org/Graphics/SVG/1.1/DTD/svg11.dtd">
<svg width="100%" height="100%" viewBox="0 0 24 24" version="1.1" xmlns="http://www.w3.org/2000/svg" xmlns:xlink="http://www.w3.org/1999/xlink" xml:space="preserve" xmlns:serif="http://www.serif.com/" style="fill-rule:evenodd;clip-rule:evenodd;stroke-linejoin:round;stroke-miterlimit:2;">
    <g transform="matrix(0.048,0,0,0.048,0,0)">
        <path d="M47,31L453,31C466.798,31 478,42.202 478,56C478,57.71 477.828,59.379 477.5,60.995L477.5,144.005C477.828,145.621 478,147.29 478,149C478,162.798 466.798,174 453,174L452.5,174C452.5,174 452.5,429.064 452.5,429.064C452.492,431.531 452.139,433.987 451.421,436.348C449.966,441.126 447.054,445.41 443.166,448.542C441.479,449.9 439.621,451.03 437.646,451.916L437.581,451.945C434.497,453.307 431.086,454.064 427.5,454.064L72.5,454.064C69.055,454.053 65.654,453.35 62.493,451.978L62.419,451.945C53.636,448.066 47.5,439.276 47.5,429.064L47.5,174L47,174C33.202,174 22,162.798 22,149L22,56C22,42.202 33.202,31 47,31ZM97.5,174L97.5,404.064L402.5,404.064L402.5,174L97.5,174ZM72,81L72,124L427.5,124L427.5,81L72,81Z" style="fill:white;"/>
    </g>
</svg>
