<?xml version="1.0" encoding="UTF-8" standalone="no"?>
<!DOCTYPE svg PUBLIC "-//W3C//DTD SVG 1.1//EN" "http://www.w3.org/Graphics/SVG/1.1/DTD/svg11.dtd">
<svg width="100%" height="100%" viewBox="0 0 24 24" version="1.1" xmlns="http://www.w3.org/2000/svg" xmlns:xlink="http://www.w3.org/1999/xlink" xml:space="preserve" xmlns:serif="http://www.serif.com/" style="fill-rule:evenodd;clip-rule:evenodd;stroke-linejoin:round;stroke-miterlimit:2;">
    <g transform="matrix(0.0479042,0,0,0.0479042,0.0239521,-1.4012)">
        <path d="M221.5,148.994L221.5,131C221.5,123.135 227.885,116.75 235.75,116.75L264.25,116.75C272.115,116.75 278.5,123.135 278.5,131L278.5,148.994C290.937,153.035 302.219,159.65 311.717,168.209L327.332,159.193C334.143,155.261 342.866,157.598 346.798,164.409L361.048,189.091C364.98,195.902 362.643,204.624 355.832,208.557L340.247,217.555C341.559,223.744 342.25,230.167 342.25,236.75C342.25,243.333 341.559,249.756 340.247,255.945L355.832,264.943C362.643,268.876 364.98,277.598 361.048,284.409L346.798,309.091C342.866,315.902 334.143,318.239 327.332,314.307L311.717,305.291C302.218,313.85 290.936,320.465 278.5,324.506L278.5,342.5C278.5,350.365 272.115,356.75 264.25,356.75L235.75,356.75C227.885,356.75 221.5,350.365 221.5,342.5L221.5,324.506C209.063,320.465 197.781,313.85 188.283,305.291L172.668,314.307C165.857,318.239 157.134,315.902 153.202,309.091L138.952,284.409C135.02,277.598 137.357,268.876 144.168,264.943L159.753,255.945C158.441,249.756 157.75,243.333 157.75,236.75C157.75,230.167 158.441,223.744 159.753,217.555L144.168,208.557C137.357,204.624 135.02,195.902 138.952,189.091L153.202,164.409C157.134,157.598 165.857,155.261 172.668,159.193L188.283,168.209C197.782,159.65 209.064,153.035 221.5,148.994ZM250,194.5C273.318,194.5 292.25,213.432 292.25,236.75C292.25,260.068 273.318,279 250,279C226.682,279 207.75,260.068 207.75,236.75C207.75,213.432 226.682,194.5 250,194.5Z" style="fill:white;"/>
    </g>
    <g transform="matrix(0.0535217,0,0,0.0598802,-2.69052,-22.9581)">
        <path d="M478.956,421C478.956,409.962 468.93,401 456.58,401L92.376,401C80.026,401 70,409.962 70,421C70,432.038 80.026,441 92.376,441L456.58,441C468.93,441 478.956,432.038 478.956,421Z" style="fill:white;"/>
    </g>
    <g transform="matrix(2.68256e-18,0.0438095,-0.0598802,3.66661e-18,46.956,-2.01277)">
        <path d="M478.956,421C478.956,409.962 466.707,401 451.619,401L97.337,401C82.249,401 70,409.962 70,421C70,432.038 82.249,441 97.337,441L451.619,441C466.707,441 478.956,432.038 478.956,421Z" style="fill:white;"/>
    </g>
    <g transform="matrix(2.68256e-18,0.0438095,-0.0598802,3.66661e-18,27.4632,-2.01277)">
        <path d="M478.956,421C478.956,409.962 466.707,401 451.619,401L97.337,401C82.249,401 70,409.962 70,421C70,432.038 82.249,441 97.337,441L451.619,441C466.707,441 478.956,432.038 478.956,421Z" style="fill:white;"/>
    </g>
    <g transform="matrix(1.01134e-18,0.0165164,-0.0598802,3.66661e-18,32.9961,15.4187)">
        <path d="M478.956,421C478.956,409.962 446.465,401 406.446,401L142.51,401C102.491,401 70,409.962 70,421C70,432.038 102.491,441 142.51,441L406.446,441C446.465,441 478.956,432.038 478.956,421Z" style="fill:white;"/>
    </g>
    <g transform="matrix(-0.0148016,0.0148016,-0.0423417,-0.0423417,31.8546,33.7154)">
        <path d="M478.956,421C478.956,409.962 453.32,401 421.743,401L127.213,401C95.636,401 70,409.962 70,421C70,432.038 95.636,441 127.213,441L421.743,441C453.32,441 478.956,432.038 478.956,421Z" style="fill:white;"/>
    </g>
    <g transform="matrix(0.0479042,0,0,0.0479042,0,0)">
        <path d="M162.543,346L162.543,396L47.044,396C33.246,396 22.044,384.798 22.044,371C22.044,357.202 33.246,346 47.044,346L162.543,346ZM253,346L453.956,346C467.754,346 478.956,357.202 478.956,371C478.956,384.798 467.754,396 453.956,396L256,396L253,346Z" style="fill:white;"/>
    </g>
</svg>
