<?xml version="1.0" encoding="UTF-8" standalone="no"?>
<!DOCTYPE svg PUBLIC "-//W3C//DTD SVG 1.1//EN" "http://www.w3.org/Graphics/SVG/1.1/DTD/svg11.dtd">
<svg width="100%" height="100%" viewBox="0 0 24 24" version="1.1" xmlns="http://www.w3.org/2000/svg" xmlns:xlink="http://www.w3.org/1999/xlink" xml:space="preserve" xmlns:serif="http://www.serif.com/" style="fill-rule:evenodd;clip-rule:evenodd;stroke-linejoin:round;stroke-miterlimit:2;">
    <path d="M21.975,3.802C22.173,3.802 22.359,3.85 22.524,3.935C22.909,4.134 23.173,4.537 23.173,5L23.173,19C23.172,19.116 23.156,19.231 23.123,19.342C23.06,19.553 22.938,19.744 22.775,19.891C22.7,19.959 22.616,20.016 22.527,20.063L22.524,20.065C22.359,20.15 22.173,20.198 21.975,20.198L2.025,20.198C1.941,20.197 1.858,20.189 1.776,20.172C1.673,20.15 1.574,20.114 1.48,20.067L1.476,20.065C1.091,19.866 0.827,19.463 0.827,19L0.827,5C0.827,4.537 1.091,4.134 1.476,3.935C1.641,3.85 1.827,3.802 2.025,3.802L21.975,3.802ZM3.222,6.198L3.222,17.802L20.778,17.802L20.778,6.198L3.222,6.198Z" style="fill:white;"/>
    <g transform="matrix(0.496954,0,0,0.496954,-0.29295,7.63969)">
        <path d="M9.455,13.46C9.279,13.46 9.133,13.4 9.017,13.28C8.901,13.16 8.843,13.012 8.843,12.836L8.843,4.712C8.843,4.536 8.903,4.388 9.023,4.268C9.143,4.148 9.287,4.088 9.455,4.088C9.631,4.088 9.779,4.148 9.899,4.268C10.019,4.388 10.079,4.536 10.079,4.712L10.079,12.212L14.423,12.212C14.599,12.212 14.747,12.272 14.867,12.392C14.987,12.512 15.047,12.66 15.047,12.836C15.047,13.012 14.987,13.16 14.867,13.28C14.747,13.4 14.599,13.46 14.423,13.46L9.455,13.46Z" style="fill:white;fill-rule:nonzero;stroke:white;stroke-width:0.96px;"/>
    </g>
    <g transform="matrix(0.496954,0,0,0.496954,-0.29295,7.63969)">
        <path d="M20.039,13.58C19.111,13.58 18.285,13.376 17.561,12.968C16.837,12.56 16.275,11.99 15.875,11.258C15.475,10.526 15.275,9.696 15.275,8.768C15.275,7.84 15.475,7.012 15.875,6.284C16.275,5.556 16.837,4.988 17.561,4.58C18.285,4.172 19.111,3.968 20.039,3.968C20.959,3.968 21.781,4.172 22.505,4.58C23.229,4.988 23.793,5.556 24.197,6.284C24.601,7.012 24.803,7.84 24.803,8.768C24.803,9.696 24.601,10.526 24.197,11.258C23.793,11.99 23.231,12.56 22.511,12.968C21.791,13.376 20.967,13.58 20.039,13.58ZM20.039,12.452C20.719,12.452 21.331,12.29 21.875,11.966C22.419,11.642 22.843,11.2 23.147,10.64C23.451,10.08 23.603,9.456 23.603,8.768C23.603,8.08 23.451,7.456 23.147,6.896C22.843,6.336 22.421,5.896 21.881,5.576C21.341,5.256 20.727,5.096 20.039,5.096C19.351,5.096 18.737,5.256 18.197,5.576C17.657,5.896 17.235,6.336 16.931,6.896C16.627,7.456 16.475,8.08 16.475,8.768C16.475,9.456 16.627,10.08 16.931,10.64C17.235,11.2 17.659,11.642 18.203,11.966C18.747,12.29 19.359,12.452 20.039,12.452Z" style="fill:white;fill-rule:nonzero;stroke:white;stroke-width:0.96px;"/>
    </g>
    <g transform="matrix(0.496954,0,0,0.496954,-0.29295,7.63969)">
        <path d="M32.015,4.088C32.183,4.088 32.321,4.142 32.429,4.25C32.537,4.358 32.591,4.496 32.591,4.664C32.591,4.832 32.537,4.97 32.429,5.078C32.321,5.186 32.183,5.24 32.015,5.24L29.435,5.24L29.435,12.836C29.435,13.012 29.375,13.16 29.255,13.28C29.135,13.4 28.987,13.46 28.811,13.46C28.635,13.46 28.487,13.4 28.367,13.28C28.247,13.16 28.187,13.012 28.187,12.836L28.187,5.24L25.595,5.24C25.427,5.24 25.289,5.186 25.181,5.078C25.073,4.97 25.019,4.832 25.019,4.664C25.019,4.496 25.073,4.358 25.181,4.25C25.289,4.142 25.427,4.088 25.595,4.088L32.015,4.088Z" style="fill:white;fill-rule:nonzero;stroke:white;stroke-width:0.96px;"/>
    </g>
    <g transform="matrix(0.496954,0,0,0.496954,-0.29295,7.63969)">
        <path d="M34.595,13.46C34.419,13.46 34.271,13.4 34.151,13.28C34.031,13.16 33.971,13.012 33.971,12.836L33.971,4.712C33.971,4.528 34.031,4.378 34.151,4.262C34.271,4.146 34.419,4.088 34.595,4.088L40.019,4.088C40.203,4.088 40.351,4.142 40.463,4.25C40.575,4.358 40.631,4.5 40.631,4.676C40.631,4.844 40.575,4.98 40.463,5.084C40.351,5.188 40.203,5.24 40.019,5.24L35.219,5.24L35.219,8.156L38.663,8.156C38.839,8.156 38.985,8.21 39.101,8.318C39.217,8.426 39.275,8.564 39.275,8.732C39.275,8.9 39.217,9.038 39.101,9.146C38.985,9.254 38.839,9.308 38.663,9.308L35.219,9.308L35.219,12.308L40.019,12.308C40.203,12.308 40.351,12.36 40.463,12.464C40.575,12.568 40.631,12.704 40.631,12.872C40.631,13.048 40.575,13.19 40.463,13.298C40.351,13.406 40.203,13.46 40.019,13.46L34.595,13.46Z" style="fill:white;fill-rule:nonzero;stroke:white;stroke-width:0.96px;"/>
    </g>
</svg>
