<?xml version="1.0" encoding="UTF-8" standalone="no"?>
<!DOCTYPE svg PUBLIC "-//W3C//DTD SVG 1.1//EN" "http://www.w3.org/Graphics/SVG/1.1/DTD/svg11.dtd">
<svg width="100%" height="100%" viewBox="0 0 24 24" version="1.1" xmlns="http://www.w3.org/2000/svg" xmlns:xlink="http://www.w3.org/1999/xlink" xml:space="preserve" xmlns:serif="http://www.serif.com/" style="fill-rule:evenodd;clip-rule:evenodd;stroke-linejoin:round;stroke-miterlimit:2;">
    <g transform="matrix(0.0339411,-0.0339411,0.0339411,0.0339411,-4.83413,11.5664)">
        <path d="M216,26.585C217.986,26.159 219.987,25.77 222,25.418L222,188C222,203.454 234.546,216 250,216C265.454,216 278,203.454 278,188L278,25.418C288.588,27.268 298.824,30.149 308.596,33.951L308.739,34.007L309.203,34.189L309.42,34.274L309.432,34.279L309.475,34.296L309.898,34.465L310.127,34.556L310.151,34.565L310.208,34.588L310.604,34.748L310.833,34.84L310.867,34.855L310.94,34.884L311.313,35.037L311.537,35.129L311.582,35.147L311.67,35.183L312.021,35.329L312.239,35.42L312.296,35.444L312.398,35.486L312.729,35.626L312.94,35.714L313.008,35.744L313.125,35.793L313.435,35.925L313.639,36.012L313.72,36.047L313.85,36.102L314.139,36.228L314.336,36.313L314.429,36.354L314.572,36.416L314.842,36.534L315.032,36.617L315.138,36.664L315.293,36.732L315.543,36.843L315.726,36.924L315.846,36.978L316.013,37.052L316.243,37.156L316.418,37.235L316.553,37.296L316.73,37.375L316.94,37.471L317.109,37.548L317.26,37.618L317.445,37.702L317.636,37.79L317.798,37.865L317.967,37.944L318.159,38.032L318.329,38.112L318.485,38.184L318.674,38.274L318.87,38.366L319.021,38.437L319.17,38.507L319.383,38.609L319.58,38.702L319.71,38.765L319.854,38.833L320.093,38.949L320.288,39.043L320.398,39.096L320.536,39.162L320.807,39.295L320.994,39.386L321.083,39.43L321.216,39.495L321.527,39.649L321.698,39.733L321.767,39.767L321.894,39.83L322.256,40.011L322.4,40.083L322.448,40.107L322.571,40.168L323,40.386L323.1,40.436L323.127,40.45L323.245,40.51L323.77,40.778L323.805,40.796C376.058,67.648 411.836,122.097 411.836,184.836C411.836,274.155 339.32,346.672 250,346.672C160.68,346.672 88.164,274.155 88.164,184.836C88.164,122.93 122.999,69.095 174.119,41.884L174.119,41.882C184.369,36.426 195.272,32.04 206.678,28.874L207.095,28.759L207.501,28.648L207.528,28.641L207.55,28.635L207.867,28.549L208.333,28.424L208.367,28.415L208.388,28.41L208.64,28.343L209.18,28.201L209.22,28.191C210.607,27.83 212.001,27.488 213.402,27.163L213.44,27.154L213.609,27.116L214.091,27.005L214.212,26.978L214.292,26.96L214.515,26.91L214.876,26.829L215.021,26.797L215.145,26.77L215.383,26.718L215.662,26.657L215.828,26.621L216,26.584L216,26.585ZM328,104.721L328,188C328,231.049 293.049,266 250,266C206.951,266 172,231.049 172,188L172,104.721C151.133,125.041 138.164,153.436 138.164,184.836C138.164,246.56 188.276,296.672 250,296.672C311.724,296.672 361.836,246.56 361.836,184.836C361.836,153.434 348.866,125.038 328,104.721Z" style="fill:white;"/>
    </g>
    <g transform="matrix(0.0339411,-0.0339411,0.0339411,0.0339411,-4.83413,11.5664)">
        <path d="M172,312L222,296.672L222,459.253C222,474.707 234.546,487.253 250,487.253C265.454,487.253 278,474.707 278,459.253L278,296.672L328,312L328,459.253C328,502.303 293.049,537.253 250,537.253C206.951,537.253 172,502.303 172,459.253L172,312Z" style="fill:white;"/>
    </g>
</svg>
