<?xml version="1.0" encoding="UTF-8" standalone="no"?>
<!DOCTYPE svg PUBLIC "-//W3C//DTD SVG 1.1//EN" "http://www.w3.org/Graphics/SVG/1.1/DTD/svg11.dtd">
<svg width="100%" height="100%" viewBox="0 0 24 24" version="1.1" xmlns="http://www.w3.org/2000/svg" xmlns:xlink="http://www.w3.org/1999/xlink" xml:space="preserve" xmlns:serif="http://www.serif.com/" style="fill-rule:evenodd;clip-rule:evenodd;stroke-linejoin:round;stroke-miterlimit:2;">
    <g transform="matrix(0.0510638,0,0,0.0510638,-1.63941,-1.19838)">
        <rect x="174" y="53" width="47" height="114" style="fill:white;"/>
    </g>
    <g transform="matrix(0.0510638,0,0,0.0510638,4.36059,-1.19838)">
        <rect x="174" y="53" width="47" height="114" style="fill:white;"/>
    </g>
    <g transform="matrix(3.12676e-18,0.0510638,-0.0736842,4.51186e-18,19.551,-2.75583)">
        <rect x="174" y="53" width="47" height="114" style="fill:white;"/>
    </g>
    <g transform="matrix(0.048,0,0,0.048,-0.68672,-0.68672)">
        <path d="M279.636,472L56.728,472C42.119,472 30.259,460.139 30.259,445.531L30.259,52.341C30.259,37.732 42.119,25.872 56.728,25.872L448.789,25.872C463.398,25.872 475.259,37.732 475.259,52.341L475.259,276.378C462.224,258.588 445.093,243.985 425.259,233.963L425.259,78.71C425.259,77.143 423.987,75.872 422.421,75.872L83.096,75.872C81.53,75.872 80.259,77.143 80.259,78.71L80.259,419.162C80.259,420.729 81.53,422 83.096,422L237.222,422C247.244,441.835 261.849,458.968 279.636,472Z" style="fill:white;"/>
    </g>
    <g transform="matrix(0.0617542,0,0,0.0617542,-5.6693,-5.62448)">
        <path d="M363.9,444.55C353.106,444.55 343.442,442.253 334.909,437.658C326.376,433.063 319.702,426.791 314.889,418.841C310.075,410.892 307.669,401.957 307.669,392.038C307.669,388.829 308.617,386.131 310.513,383.943C312.409,381.755 314.816,380.661 317.733,380.661C320.651,380.661 323.057,381.755 324.954,383.943C326.85,386.131 327.798,388.829 327.798,392.038C327.798,398.019 329.33,403.525 332.393,408.558C335.456,413.59 339.65,417.601 344.974,420.592C350.298,423.582 356.169,425.077 362.587,425.077C372.36,425.077 380.164,422.378 385.998,416.981C391.833,411.584 394.75,404.145 394.75,394.664C394.75,388.684 393.437,383.177 390.812,378.145C388.186,373.112 384.576,369.174 379.981,366.33C375.387,363.485 370.318,362.063 364.775,362.063C361.566,362.063 358.904,360.969 356.789,358.781C354.674,356.593 353.616,353.895 353.616,350.686C353.616,347.477 354.674,344.815 356.789,342.7C358.904,340.585 361.566,339.527 364.775,339.527C368.859,339.527 372.834,338.469 376.699,336.354C380.565,334.239 383.701,331.359 386.108,327.712C388.514,324.065 389.718,320.054 389.718,315.678C389.718,309.26 387.384,303.863 382.716,299.487C378.049,295.111 372.068,292.923 364.775,292.923C359.232,292.923 354.163,294.017 349.568,296.205C344.974,298.393 341.327,301.31 338.628,304.957C335.93,308.604 334.581,312.688 334.581,317.21C334.581,320.564 333.633,323.372 331.736,325.633C329.84,327.894 327.433,329.025 324.516,329.025C321.599,329.025 319.192,327.967 317.296,325.852C315.399,323.737 314.451,321.075 314.451,317.866C314.451,309.552 316.639,302.003 321.015,295.22C325.391,288.438 331.372,283.114 338.957,279.248C346.542,275.383 355.002,273.45 364.337,273.45C372.797,273.45 380.528,275.31 387.53,279.029C394.531,282.749 400.038,287.818 404.049,294.236C408.06,300.654 410.066,307.801 410.066,315.678C410.066,323.555 407.586,330.374 402.627,336.136C397.667,341.897 391.468,346.456 384.029,349.81C395.115,353.603 403.356,359.401 408.753,367.205C414.15,375.009 416.849,384.235 416.849,394.883C416.849,404.218 414.442,412.678 409.628,420.263C404.815,427.848 398.36,433.792 390.265,438.095C382.169,442.398 373.381,444.55 363.9,444.55Z" style="fill:white;"/>
    </g>
</svg>
