<?xml version="1.0" encoding="UTF-8" standalone="no"?>
<!DOCTYPE svg PUBLIC "-//W3C//DTD SVG 1.1//EN" "http://www.w3.org/Graphics/SVG/1.1/DTD/svg11.dtd">
<svg width="100%" height="100%" viewBox="0 0 24 24" version="1.1" xmlns="http://www.w3.org/2000/svg" xmlns:xlink="http://www.w3.org/1999/xlink" xml:space="preserve" xmlns:serif="http://www.serif.com/" style="fill-rule:evenodd;clip-rule:evenodd;stroke-linejoin:round;stroke-miterlimit:2;">
    <g transform="matrix(1.05194,0,0,0.843935,-1.52355,-0.632472)">
        <path d="M22.944,4.581C22.944,3.798 22.434,3.162 21.806,3.162L3.791,3.162C3.163,3.162 2.652,3.798 2.652,4.581C2.652,5.364 3.163,6 3.791,6L21.806,6C22.434,6 22.944,5.364 22.944,4.581Z" style="fill:white;"/>
    </g>
    <g transform="matrix(0.0406582,0,0,0.0406582,0.88822,-1.13722)">
        <circle cx="139.5" cy="107.5" r="59.5" style="fill:white;"/>
    </g>
    <g transform="matrix(-1.05194,0,0,0.843935,25.4023,7.0801)">
        <path d="M22.944,4.581C22.944,3.798 22.434,3.162 21.806,3.162L3.791,3.162C3.163,3.162 2.652,3.798 2.652,4.581C2.652,5.364 3.163,6 3.791,6L21.806,6C22.434,6 22.944,5.364 22.944,4.581Z" style="fill:white;"/>
    </g>
    <g transform="matrix(0.0521956,0,0,0.0546573,4.05754,-0.754052)">
        <rect x="182.878" y="289" width="19.704" height="141.872" style="fill:white;"/>
    </g>
    <g transform="matrix(0.0521956,0,0,0.0546573,4.05754,-0.754052)">
        <rect x="218.346" y="289" width="19.704" height="141.872" style="fill:white;"/>
    </g>
    <g transform="matrix(0.0521956,0,0,0.0546573,4.05754,-0.754052)">
        <rect x="318.649" y="289" width="30.739" height="141.872" style="fill:white;"/>
    </g>
    <g transform="matrix(0.0521956,0,0,0.0546573,4.05754,-0.754052)">
        <rect x="126.129" y="289" width="40.985" height="141.872" style="fill:white;"/>
    </g>
    <g transform="matrix(0.0521956,0,0,0.0546573,4.05754,-0.754052)">
        <rect x="253.814" y="289" width="49.071" height="141.872" style="fill:white;"/>
    </g>
    <g transform="matrix(0.0479042,0,0,0.0479042,0,0)">
        <path d="M325.625,264C316.601,254.874 311.028,242.333 311.028,228.5C311.028,200.628 333.656,178 361.528,178C389.399,178 412.028,200.628 412.028,228.5C412.028,242.333 406.454,254.874 397.43,264L325.625,264Z" style="fill:white;"/>
    </g>
    <g transform="matrix(0.0479042,0,0,0.0479042,0,0)">
        <path d="M172.129,364.5L172.129,414.5L51.441,414.5C37.643,414.5 26.441,403.298 26.441,389.5C26.441,375.702 37.643,364.5 51.441,364.5L172.129,364.5Z" style="fill:white;"/>
    </g>
    <g transform="matrix(0.0479042,0,0,0.0479042,0,0)">
        <path d="M172.129,425.708C163.032,434.551 150.617,440 136.941,440C109.069,440 86.441,417.372 86.441,389.5C86.441,361.628 109.069,339 136.941,339C150.617,339 163.032,344.449 172.129,353.292L172.129,425.708Z" style="fill:white;"/>
    </g>
</svg>
