<?xml version="1.0" encoding="UTF-8" standalone="no"?>
<!DOCTYPE svg PUBLIC "-//W3C//DTD SVG 1.1//EN" "http://www.w3.org/Graphics/SVG/1.1/DTD/svg11.dtd">
<svg width="100%" height="100%" viewBox="0 0 24 24" version="1.1" xmlns="http://www.w3.org/2000/svg" xmlns:xlink="http://www.w3.org/1999/xlink" xml:space="preserve" xmlns:serif="http://www.serif.com/" style="fill-rule:evenodd;clip-rule:evenodd;stroke-linejoin:round;stroke-miterlimit:2;">
    <g transform="matrix(1.05194,0,0,0.843935,-1.52355,-0.632472)">
        <path d="M22.944,4.581C22.944,3.798 22.434,3.162 21.806,3.162L3.791,3.162C3.163,3.162 2.652,3.798 2.652,4.581C2.652,5.364 3.163,6 3.791,6L21.806,6C22.434,6 22.944,5.364 22.944,4.581Z" style="fill:white;"/>
    </g>
    <g transform="matrix(0.0406582,0,0,0.0406582,0.88822,-1.13722)">
        <circle cx="139.5" cy="107.5" r="59.5" style="fill:white;"/>
    </g>
    <g transform="matrix(0.0406582,0,0,-0.0406582,0.88822,23.0294)">
        <circle cx="139.5" cy="107.5" r="59.5" style="fill:white;"/>
    </g>
    <g transform="matrix(0.0307462,0,0,0.0307462,9.20325,8.91225)">
        <circle cx="250" cy="135" r="93" style="fill:white;"/>
    </g>
    <g transform="matrix(0.0307462,0,0,0.0307462,9.20325,8.91225)">
        <path d="M45.001,432.396C45.368,329.562 137.084,256 250,256C362.916,256 454.632,331.554 454.999,432.408L455,433C455,446.798 443.798,458 430,458L70,458C56.202,458 45,446.798 45,433L45.001,432.396Z" style="fill:white;"/>
    </g>
    <g transform="matrix(0.0479042,0,0,0.0479042,0,0)">
        <path d="M290.922,203.5C276.438,216.416 266.028,233.812 261.877,253.5L51.441,253.5C37.643,253.5 26.441,242.298 26.441,228.5C26.441,214.702 37.643,203.5 51.441,203.5L290.922,203.5ZM414.227,203.5L447.028,203.5C460.825,203.5 472.028,214.702 472.028,228.5C472.028,242.298 460.825,253.5 447.028,253.5L443.272,253.5C439.12,233.811 428.711,216.417 414.227,203.5Z" style="fill:white;"/>
    </g>
    <g transform="matrix(0.0479042,0,0,0.0479042,0,0)">
        <path d="M232.012,364.5C216.304,378.469 203.39,395.336 194.133,414.5L51.441,414.5C37.643,414.5 26.441,403.298 26.441,389.5C26.441,375.702 37.643,364.5 51.441,364.5L232.012,364.5Z" style="fill:white;"/>
    </g>
</svg>
