<?xml version="1.0" encoding="UTF-8" standalone="no"?>
<!DOCTYPE svg PUBLIC "-//W3C//DTD SVG 1.1//EN" "http://www.w3.org/Graphics/SVG/1.1/DTD/svg11.dtd">
<svg width="100%" height="100%" viewBox="0 0 24 24" version="1.1" xmlns="http://www.w3.org/2000/svg" xmlns:xlink="http://www.w3.org/1999/xlink" xml:space="preserve" xmlns:serif="http://www.serif.com/" style="fill-rule:evenodd;clip-rule:evenodd;stroke-linejoin:round;stroke-miterlimit:2;">
    <g transform="matrix(0.046486,0,0,0.055814,0.0763363,-2.97265)">
        <path d="M380,426.5C380,414.634 368.433,405 354.186,405L158.814,405C144.567,405 133,414.634 133,426.5C133,438.366 144.567,448 158.814,448L354.186,448C368.433,448 380,438.366 380,426.5Z" style="fill:white;"/>
    </g>
    <g transform="matrix(0.048,0,0,0.048,0,0)">
        <path d="M468,87.2C468,68.324 452.676,53 433.8,53L66.2,53C47.324,53 32,68.324 32,87.2L32,354.8C32,373.676 47.324,389 66.2,389L433.8,389C452.676,389 468,373.676 468,354.8L468,87.2ZM250,351C257.175,351 263,356.825 263,364C263,371.175 257.175,377 250,377C242.825,377 237,371.175 237,364C237,356.825 242.825,351 250,351ZM418,111.916C418,106.995 414.005,103 409.084,103L90.916,103C85.995,103 82,106.995 82,111.916L82,330.084C82,335.005 85.995,339 90.916,339L409.084,339C414.005,339 418,335.005 418,330.084L418,111.916Z" style="fill:white;"/>
    </g>
</svg>
