<?xml version="1.0" encoding="UTF-8" standalone="no"?>
<!DOCTYPE svg PUBLIC "-//W3C//DTD SVG 1.1//EN" "http://www.w3.org/Graphics/SVG/1.1/DTD/svg11.dtd">
<svg width="100%" height="100%" viewBox="0 0 120 120" version="1.1" xmlns="http://www.w3.org/2000/svg" xmlns:xlink="http://www.w3.org/1999/xlink" xml:space="preserve" xmlns:serif="http://www.serif.com/" style="fill-rule:evenodd;clip-rule:evenodd;stroke-linejoin:round;stroke-miterlimit:2;">
    <g transform="matrix(0.24,0,0,0.24,0,0)">
        <g transform="matrix(0.707107,-0.707107,0.707107,0.707107,-11.0889,260.175)">
            <path d="M188.856,230C236.123,229.988 427,230 427,230C440.798,230 452,218.798 452,205C452,191.202 442.654,180 428.856,180C391.999,180 188.856,180 188.856,180C174.901,180.906 148.001,190.991 148,204.975L148,205C148,205 148,205.025 148,205.025C148,219.009 174.872,230.004 188.856,230Z" style="fill:white;"/>
        </g>
        <path d="M406,217.645L356,267.645L356,374L130,374L130,70.5L356,70.5L356,98.151L406,48.149L406,45.5C406,39.625 403.969,34.22 400.573,29.952L400.534,29.904C395.95,24.173 388.901,20.5 381,20.5L105,20.5C97.099,20.5 90.05,24.173 85.466,29.904L85.427,29.952C82.031,34.22 80,39.625 80,45.5L80,454.5C80,460.375 82.031,465.78 85.427,470.048L85.466,470.096C90.05,475.827 97.099,479.5 105,479.5L381,479.5C388.901,479.5 395.95,475.827 400.534,470.096L400.573,470.048C403.969,465.78 406,460.375 406,454.5L406,217.645ZM243,397C259.006,397 272,409.994 272,426C272,442.006 259.006,455 243,455C226.994,455 214,442.006 214,426C214,409.994 226.994,397 243,397ZM312.363,406.863C322.925,406.863 331.5,415.438 331.5,426C331.5,436.562 322.925,445.137 312.363,445.137C301.801,445.137 293.226,436.562 293.226,426C293.226,415.438 301.801,406.863 312.363,406.863ZM173.637,406.863C184.199,406.863 192.774,415.438 192.774,426C192.774,436.562 184.199,445.137 173.637,445.137C163.075,445.137 154.5,436.562 154.5,426C154.5,415.438 163.075,406.863 173.637,406.863ZM243,35C249.071,35 254,39.929 254,46C254,52.071 249.071,57 243,57C236.929,57 232,52.071 232,46C232,39.929 236.929,35 243,35Z" style="fill:white;"/>
    </g>
</svg>
